PathFileType	4	(X/Y/Z)	 s09c0201.trc
DataRate	CameraRate	NumFrames	NumMarkers	Units	OrigDataRate	OrigDataStartFrame	OrigNumFrames
200	200	6	50	mm	200	1001	2000
Frame#	Time	racr			lacr			c7			jug			rlel			rdr			llel			ldr			s2			lic			ric			lasi			rasi			rpsi			lpsi			rgt			lgt			rth1			rth2			rth3			rth4			rlfc			rmfc			rsh1			rsh2			rsh3			rsh4			rlmal			rmmal			rcal			rtoe			rmt5			lth1			lth2			lth4			lth3			llfc			lmfc			llmal			lmmal			lcal			lmt5			lsh1			lsh2			lsh3			lsh4			ltoe			SBIKE			LBIKE			RBIKE			
		X1	Y1	Z1	X2	Y2	Z2	X3	Y3	Z3	X4	Y4	Z4	X5	Y5	Z5	X6	Y6	Z6	X7	Y7	Z7	X8	Y8	Z8	X9	Y9	Z9	X10	Y10	Z10	X11	Y11	Z11	X12	Y12	Z12	X13	Y13	Z13	X14	Y14	Z14	X15	Y15	Z15	X16	Y16	Z16	X17	Y17	Z17	X18	Y18	Z18	X19	Y19	Z19	X20	Y20	Z20	X21	Y21	Z21	X22	Y22	Z22	X23	Y23	Z23	X24	Y24	Z24	X25	Y25	Z25	X26	Y26	Z26	X27	Y27	Z27	X28	Y28	Z28	X29	Y29	Z29	X30	Y30	Z30	X31	Y31	Z31	X32	Y32	Z32	X33	Y33	Z33	X34	Y34	Z34	X35	Y35	Z35	X36	Y36	Z36	X37	Y37	Z37	X38	Y38	Z38	X39	Y39	Z39	X40	Y40	Z40	X41	Y41	Z41	X42	Y42	Z42	X43	Y43	Z43	X44	Y44	Z44	X45	Y45	Z45	X46	Y46	Z46	X47	Y47	Z47	X48	Y48	Z48	X49	Y49	Z49	X50	Y50	Z50	
1001	5.0050	474.830676	1236.483511	-27.816331	544.557800	1186.481759	-365.901783	493.427136	1292.600409	-198.643623	465.845707	1161.066811	-197.883927	478.859350	1015.279191	93.408385	673.813290	907.701367	-19.294113	460.554229	1012.417884	-564.044685	659.950143	901.656571	-484.290037	8.955338	1125.269310	-274.367835	158.653787	1112.897563	-402.041861	127.487879	1144.776459	-106.715546	194.817133	1063.882177	-368.948864	176.390601	1091.364899	-116.729478	29.652496	1163.404247	-214.686347	40.973512	1161.224900	-323.619876	118.783936	1010.472506	-60.663805	135.346038	977.357036	-434.544042	239.484897	934.570543	-56.375286	323.366871	909.010416	-57.854152	379.269983	840.831690	-59.078937	341.997566	932.776127	-78.851591	451.387267	759.940309	-86.901468	449.480327	739.147374	-183.477007	409.818273	661.374273	-58.162487	412.574246	572.742295	-74.044210	371.227055	496.139219	-76.246014	439.795934	570.626992	-102.519815	350.934141	394.564278	-79.065770	345.829676	407.963794	-155.723348	272.880879	348.449653	-113.236682	535.717439	380.178984	-131.038339	461.378452	349.019677	-61.221347	234.840495	880.207786	-416.660567	305.118390	836.741554	-398.000067	329.759530	860.407097	-380.759219	347.194988	757.017905	-387.797969	378.927227	666.269546	-364.250482	371.120064	652.632491	-266.195024	105.456738	427.676911	-399.127774	121.964883	420.506636	-326.751088	31.203127	436.291547	-364.625609	132.967255	297.343625	-427.586370	309.552292	599.091311	-394.180275	260.832999	527.976078	-388.020563	181.442459	488.217375	-396.821714	274.228857	511.305558	-353.368863	212.367564	249.413285	-358.403640	-65.102855	853.235714	-239.133852	20.732238	84.753931	-442.044271	21.140315	84.046104	-43.803854	
1002	5.0100	476.704347	1237.639459	-29.156347	543.556007	1187.253250	-367.562229	493.679864	1293.512061	-199.501377	466.631620	1161.835614	-198.940018	479.324544	1016.296333	92.784283	673.972110	907.489479	-19.160583	459.535644	1010.904907	-564.129131	660.196748	901.497061	-485.665750	8.433559	1124.183535	-272.393779	158.120438	1113.295302	-400.156081	127.590532	1143.532881	-104.382187	194.510733	1064.422252	-367.226163	176.788482	1090.412263	-114.749297	29.602071	1162.420009	-212.145798	40.699147	1161.075437	-321.432082	118.402361	1006.561721	-59.272620	136.357432	977.941187	-433.551821	238.367522	929.679698	-54.136283	321.806041	902.058175	-56.437194	376.251628	833.038867	-58.312039	340.616693	925.913428	-76.889557	446.799274	751.793969	-86.205948	446.214262	731.197095	-182.602542	406.381981	652.507353	-57.409516	410.618788	564.020904	-73.486127	370.572022	486.702652	-75.941168	438.022519	562.352494	-101.934306	351.716566	384.116952	-78.841333	346.823574	398.225257	-154.934727	274.097920	338.371285	-112.997530	537.002036	368.846392	-131.064374	462.569460	338.032040	-61.334544	236.269987	882.037901	-415.533938	307.364640	839.567303	-397.052310	331.792135	863.623927	-380.122347	350.743905	760.794314	-386.604451	383.661841	671.405042	-363.402082	375.675219	657.904355	-265.381897	105.435772	438.288481	-398.777699	121.721300	431.214350	-326.398775	30.992759	447.553961	-364.558024	132.032953	308.058512	-427.536635	313.101279	605.342744	-393.540829	262.886320	535.214885	-387.443957	182.736872	497.122472	-396.384443	275.580478	518.102267	-352.206486	211.296702	259.976066	-358.381241	-65.115511	853.334286	-239.019917	20.733069	84.770763	-442.064141	21.141367	84.028587	-43.780670	
1003	5.0150	478.768429	1238.423391	-30.793644	542.443193	1188.205562	-369.243882	493.871783	1294.309286	-200.176043	467.408520	1162.476933	-200.021921	480.008908	1017.297446	91.927865	674.177022	907.324244	-18.842067	458.623151	1009.497140	-564.350473	660.465962	901.282152	-486.979958	8.263843	1123.056091	-270.128699	157.401847	1113.782598	-398.174083	127.789436	1142.233383	-101.981383	194.201405	1064.281420	-364.508227	177.268816	1089.604521	-112.590668	29.506226	1161.482580	-209.322092	40.265567	1160.726327	-318.903717	118.064568	1002.799037	-57.679951	137.226071	978.639738	-432.480486	237.088391	924.350782	-52.491202	320.013506	895.040795	-55.069559	373.029704	824.863891	-58.264756	339.291280	918.722032	-75.341849	442.064248	743.383950	-85.785786	440.404141	722.613191	-183.147906	402.840582	643.534085	-57.085623	408.332463	555.084446	-73.172107	369.538037	477.154242	-75.808466	435.795632	554.097840	-101.601097	351.699693	373.926848	-78.541647	347.365718	387.925518	-154.592727	274.929120	328.128640	-112.929190	537.682438	357.339609	-131.004024	463.108429	326.902976	-61.365891	237.477817	884.039624	-414.317664	309.412345	842.950305	-396.428608	333.637923	867.585531	-379.412785	354.442027	765.041109	-385.041484	388.560450	676.986838	-362.646413	380.157358	663.243277	-264.486069	106.036422	448.947372	-398.514747	121.936933	442.108684	-326.382190	31.301843	458.819309	-364.494455	131.791770	318.953542	-427.609652	316.789785	611.807624	-393.071703	265.253358	542.685221	-386.987675	184.193130	506.295651	-395.883784	277.550848	525.246865	-351.689962	210.994904	270.826980	-358.383283	-65.030889	853.487801	-239.086185	20.731020	84.815158	-442.039039	21.164625	84.041773	-43.777772	
1004	5.0200	480.746670	1239.505486	-32.221768	541.397782	1189.060000	-370.955738	494.318467	1295.256954	-201.266995	468.283401	1163.298568	-201.420106	480.706665	1018.265864	91.207730	674.426361	907.215868	-18.407211	457.839881	1008.122533	-564.638779	660.743263	901.030476	-488.465589	8.541853	1122.178097	-267.311067	156.577978	1114.386775	-396.106240	128.135968	1140.835549	-99.578287	193.672044	1064.906887	-362.598469	177.797755	1088.668355	-110.589216	29.781192	1160.345539	-206.307643	39.746519	1160.523367	-316.008197	117.728023	999.167985	-56.069985	137.793124	979.428455	-431.215879	235.731566	918.837369	-50.942123	317.779747	887.807650	-54.049421	369.482915	816.442535	-57.940680	337.841373	911.194048	-74.020139	436.931953	734.455418	-85.747831	434.834548	714.015662	-182.875489	398.952256	634.229519	-56.963334	405.698962	546.044177	-73.020498	368.041000	467.352776	-75.737106	433.055985	545.513563	-101.623245	351.009013	363.832539	-78.266329	346.906006	376.987604	-155.437112	274.807848	318.151654	-112.812573	537.880665	346.008185	-130.863076	462.966114	315.849687	-61.383229	238.574357	886.226145	-412.913826	311.683225	846.793865	-394.892504	335.262719	872.238289	-378.888482	358.082135	769.937301	-383.586724	393.577176	682.682610	-362.214225	386.089887	668.481250	-263.906336	107.112074	459.667457	-398.346012	122.819391	452.847431	-326.121632	32.048853	469.985237	-364.388891	132.271723	329.851615	-427.700746	320.777535	618.499283	-392.746764	267.908807	550.401929	-386.641500	186.124441	515.529909	-395.484154	280.029196	532.916306	-351.519235	211.464768	281.653564	-358.395872	-64.981867	853.408523	-238.783013	20.718886	84.841940	-442.021280	21.157586	84.035522	-43.760097	
1005	5.0250	482.775157	1240.520638	-33.883803	540.386397	1189.809920	-372.759209	495.217599	1296.367847	-202.990335	469.448628	1164.311983	-203.333816	481.510277	1019.225001	90.400562	674.786467	907.149097	-17.865264	457.083879	1006.818320	-565.009167	661.079592	900.885217	-489.852679	7.535674	1124.698704	-261.953869	155.535251	1115.066442	-393.997935	128.678762	1139.355076	-97.055918	193.196279	1065.339249	-360.644533	178.418147	1087.512141	-108.694735	30.121501	1159.556216	-203.171630	38.996639	1160.587182	-312.704448	117.497116	995.798529	-54.136506	138.187979	980.401611	-429.770233	234.295319	913.353043	-49.493079	315.633419	880.773936	-53.037871	365.571278	807.632182	-57.199663	337.117355	902.757342	-73.098195	431.069362	725.035393	-86.521560	429.089598	705.023344	-182.694047	394.854123	624.640873	-57.094899	403.100278	536.537506	-72.941706	366.036842	457.414133	-75.830780	429.245932	536.400259	-102.541015	349.907894	353.623786	-78.134435	345.941662	366.557341	-155.237599	274.030624	308.188611	-112.686750	537.123542	334.142305	-131.049178	462.108338	304.665489	-61.400377	239.422829	888.866494	-411.627265	313.636921	850.945804	-394.109754	336.755259	876.940435	-378.558133	361.749649	775.224371	-383.052652	398.605784	688.609796	-361.991978	390.180144	673.787543	-263.222137	108.808351	470.391728	-398.125478	124.556185	463.588151	-326.345486	33.510377	481.093966	-364.352231	133.456451	340.793293	-427.696427	325.040109	625.440465	-392.528772	271.094448	558.633404	-386.529275	188.683588	525.100724	-395.554996	282.613224	540.463245	-351.038393	212.570579	292.661816	-358.311801	-64.915392	853.399863	-238.641645	20.715805	84.857341	-442.014916	21.152324	84.035554	-43.754614	
1006	5.0300	484.747540	1241.212036	-36.252987	539.371014	1190.439641	-374.561852	495.858663	1297.050894	-202.900749	469.329119	1165.097870	-203.803893	482.367997	1020.295958	89.728498	675.194966	907.070997	-17.271203	456.652249	1005.402285	-565.440626	661.412227	900.909620	-491.195029	6.817392	1124.537296	-259.393178	154.378033	1115.749573	-391.882822	129.311121	1137.844350	-94.577709	192.610316	1065.873305	-358.847852	179.131950	1086.281710	-106.955525	30.425169	1158.960921	-199.709473	38.278474	1160.762569	-309.403259	117.381744	992.800808	-52.012396	138.207574	981.792546	-428.219107	232.817837	907.788589	-48.360719	313.207011	873.079710	-52.296161	361.103516	798.676600	-56.918419	335.166539	894.876184	-71.742735	425.543179	715.493310	-86.500824	422.588958	695.603848	-182.674785	390.460324	614.882431	-57.326010	399.720267	526.937539	-73.325000	363.621010	447.408760	-76.027592	425.479227	527.138743	-103.346726	348.285698	343.496619	-78.073550	344.179492	356.578207	-155.112897	272.492376	298.578785	-112.749296	536.206160	323.123719	-130.325816	460.612490	293.418302	-61.545462	240.177999	891.830906	-410.403613	315.205237	856.055591	-394.279855	338.059694	882.163914	-378.604050	365.114153	781.007266	-383.216797	403.729307	694.791236	-361.970300	397.467578	680.825480	-262.426781	111.239029	481.060444	-397.947717	126.513986	474.420452	-325.627787	35.652628	492.179667	-364.233869	135.342356	351.658169	-427.660669	329.687901	632.627075	-392.335896	274.654120	566.642701	-386.211753	191.700793	534.556575	-395.216558	286.045605	548.396034	-350.784952	214.351492	303.357053	-358.244582	-64.873163	853.390195	-238.483856	20.721428	84.882960	-442.006502	21.160257	84.021163	-43.728591	
